<?xml version="1.0" encoding="UTF-8"?>
<svg width="222px" height="76px" viewBox="0 0 222 76" version="1.1" xmlns="http://www.w3.org/2000/svg" xmlns:xlink="http://www.w3.org/1999/xlink">
    <!-- Generator: Sketch 3.8.2 (29753) - http://www.bohemiancoding.com/sketch -->
    <title>Artboard 1</title>
    <desc>Created with Sketch.</desc>
    <defs></defs>
    <g id="Page-1" stroke="none" stroke-width="1" fill="none" fill-rule="evenodd">
        <g id="Artboard-1">
            <g id="Group-2">
                <path d="M73.867,40.554 L86.478,66.76 L72.418,66.76 L72.418,75.505 L55.833,75.505 L55.833,66.76 L53.004,66.76 L53.004,75.505 L34.308,75.505 L34.308,66.76 L31.478,66.76 L31.478,75.505 L14.893,75.505 L14.893,66.76 L0.832,66.76 L13.444,40.554 L3.801,40.554 L23.186,10.828 L30.052,21.359 L43.655,0.495 L57.259,21.359 L64.126,10.828 L83.508,40.554 L73.867,40.554 L73.867,40.554 Z M19.521,62.017 L32.849,34.325 L21.596,34.325 L27.22,25.7 L23.185,19.512 L12.556,35.812 L20.989,35.812 L8.377,62.017 L19.521,62.017 L19.521,62.017 Z M26.736,65.201 L19.637,65.201 L19.637,70.763 L26.736,70.763 L26.736,65.201 L26.736,65.201 Z M48.261,60.458 L61.775,60.458 L46.914,29.582 L56.959,29.582 L43.655,9.178 L30.351,29.582 L40.396,29.582 L25.536,60.458 L39.05,60.458 L39.05,70.762 L48.261,70.762 L48.261,60.458 L48.261,60.458 Z M67.675,65.201 L60.575,65.201 L60.575,70.763 L67.675,70.763 L67.675,65.201 L67.675,65.201 Z M66.321,35.812 L74.754,35.812 L64.126,19.512 L60.09,25.7 L65.713,34.325 L54.46,34.325 L67.788,62.017 L78.932,62.017 L66.321,35.812 L66.321,35.812 Z" id="Shape" fill="#34833F"></path>
                <g id="Group" transform="translate(94.000000, 23.000000)" fill="#000000">
                    <polygon id="Shape" points="28.221 0.586 28.221 5.89 17.114 5.89 17.114 35.61 11.21 35.61 11.21 5.89 0.152 5.89 0.152 0.586"></polygon>
                    <path d="M45.984,8.792 L45.984,14.295 C40.63,13.995 37.228,17.147 36.778,21.7 L36.778,35.609 L31.024,35.609 L31.024,8.991 L36.778,8.991 L36.778,14.294 C38.579,10.693 41.781,8.792 45.984,8.792 L45.984,8.792 Z" id="Shape"></path>
                    <path d="M74.155,24.502 L54.041,24.502 C54.942,28.605 58.094,31.156 62.297,31.156 C65.199,31.156 67.851,30.055 69.802,28.054 L72.855,31.306 C70.252,34.158 66.451,35.809 61.847,35.809 C53.642,35.809 48.238,30.355 48.238,22.35 C48.238,14.294 53.792,8.841 61.697,8.791 C71.053,8.792 74.855,14.896 74.155,24.502 L74.155,24.502 Z M69.151,20.3 C68.951,15.997 66.099,13.395 61.746,13.395 C57.544,13.395 54.542,16.047 53.941,20.3 L69.151,20.3 L69.151,20.3 Z" id="Shape"></path>
                    <path d="M103.578,24.502 L83.464,24.502 C84.365,28.605 87.517,31.156 91.72,31.156 C94.622,31.156 97.274,30.055 99.225,28.054 L102.278,31.306 C99.675,34.158 95.874,35.809 91.27,35.809 C83.065,35.809 77.661,30.355 77.661,22.35 C77.661,14.294 83.215,8.841 91.12,8.791 C100.476,8.792 104.278,14.896 103.578,24.502 L103.578,24.502 Z M98.574,20.3 C98.374,15.997 95.522,13.395 91.169,13.395 C86.967,13.395 83.965,16.047 83.364,20.3 L98.574,20.3 L98.574,20.3 Z" id="Shape"></path>
                    <path d="M117.089,13.345 C114.838,13.345 113.187,14.095 113.187,15.997 C113.187,20.9 127.346,18.248 127.296,27.905 C127.296,33.359 122.442,35.81 117.089,35.81 C113.187,35.81 109.033,34.509 106.382,32.107 L108.434,28.004 C110.735,30.055 114.438,31.306 117.339,31.306 C119.791,31.306 121.693,30.455 121.693,28.454 C121.693,23 107.683,26.052 107.733,16.446 C107.733,11.043 112.436,8.741 117.54,8.741 C120.893,8.741 124.445,9.742 126.847,11.443 L124.745,15.695 C122.393,14.246 119.44,13.345 117.089,13.345 L117.089,13.345 Z" id="Shape"></path>
                </g>
            </g>
        </g>
    </g>
</svg>