<?xml version="1.0" encoding="utf-8"?>
<!-- Generator: Adobe Illustrator 16.0.0, SVG Export Plug-In . SVG Version: 6.00 Build 0)  -->
<!DOCTYPE svg PUBLIC "-//W3C//DTD SVG 1.1//EN" "http://www.w3.org/Graphics/SVG/1.1/DTD/svg11.dtd">
<svg version="1.1" id="Layer_1" xmlns="http://www.w3.org/2000/svg" xmlns:xlink="http://www.w3.org/1999/xlink" x="0px" y="0px"
	 width="576px" height="576px" viewBox="0 0 576 576" enable-background="new 0 0 576 576" xml:space="preserve">
<path fill="#34833F" d="M253.867,146.554l12.611,26.206h-14.06v8.745h-16.585v-8.745h-2.829v8.745h-18.696v-8.745h-2.83v8.745
	h-16.585v-8.745h-14.061l12.612-26.206h-9.643l19.385-29.726l6.866,10.531l13.603-20.864l13.604,20.864l6.867-10.531l19.382,29.726
	H253.867z M199.521,168.017l13.328-27.692h-11.253l5.624-8.625l-4.035-6.188l-10.629,16.3h8.433l-12.612,26.205H199.521z
	 M206.736,171.201h-7.099v5.562h7.099V171.201z M228.261,166.458h13.514l-14.861-30.876h10.045l-13.304-20.404l-13.304,20.404
	h10.045l-14.86,30.876h13.514v10.304h9.211V166.458z M247.675,171.201h-7.1v5.562h7.1V171.201z M246.321,141.812h8.433l-10.628-16.3
	l-4.036,6.188l5.623,8.625h-11.253l13.328,27.692h11.144L246.321,141.812z"/>
<rect y="288" fill="#34833F" width="576" height="288"/>
<g>
	<path d="M302.221,129.586v5.304h-11.107v29.72h-5.904v-29.72h-11.058v-5.304H302.221z"/>
	<path d="M319.984,137.792v5.503c-5.354-0.3-8.756,2.852-9.206,7.405v13.909h-5.754v-26.618h5.754v5.303
		C312.579,139.693,315.781,137.792,319.984,137.792z"/>
	<path d="M348.155,153.502h-20.114c0.901,4.103,4.053,6.654,8.256,6.654c2.902,0,5.554-1.101,7.505-3.102l3.053,3.252
		c-2.603,2.852-6.404,4.503-11.008,4.503c-8.205,0-13.609-5.454-13.609-13.459c0-8.056,5.554-13.509,13.459-13.559
		C345.053,137.792,348.855,143.896,348.155,153.502z M343.151,149.3c-0.2-4.303-3.052-6.905-7.405-6.905
		c-4.202,0-7.204,2.652-7.805,6.905H343.151z"/>
	<path d="M377.578,153.502h-20.114c0.901,4.103,4.053,6.654,8.256,6.654c2.902,0,5.554-1.101,7.505-3.102l3.053,3.252
		c-2.603,2.852-6.404,4.503-11.008,4.503c-8.205,0-13.609-5.454-13.609-13.459c0-8.056,5.554-13.509,13.459-13.559
		C374.476,137.792,378.278,143.896,377.578,153.502z M372.574,149.3c-0.2-4.303-3.052-6.905-7.405-6.905
		c-4.202,0-7.204,2.652-7.805,6.905H372.574z"/>
	<path d="M391.089,142.345c-2.251,0-3.902,0.75-3.902,2.652c0,4.903,14.159,2.251,14.109,11.908c0,5.454-4.854,7.905-10.207,7.905
		c-3.902,0-8.056-1.301-10.707-3.703l2.052-4.103c2.301,2.051,6.004,3.302,8.905,3.302c2.452,0,4.354-0.851,4.354-2.852
		c0-5.454-14.01-2.402-13.96-12.008c0-5.403,4.703-7.705,9.807-7.705c3.353,0,6.905,1.001,9.307,2.702l-2.102,4.252
		C396.393,143.246,393.44,142.345,391.089,142.345z"/>
</g>
<path fill="#FFFFFF" d="M253.867,435.66l12.611,26.206h-14.06v8.745h-16.585v-8.745h-2.829v8.745h-18.696v-8.745h-2.83v8.745
	h-16.585v-8.745h-14.061l12.612-26.206h-9.643l19.385-29.727l6.866,10.531l13.603-20.864l13.604,20.864l6.867-10.531l19.382,29.727
	H253.867z M199.521,457.123l13.328-27.692h-11.253l5.624-8.625l-4.035-6.188l-10.629,16.3h8.433l-12.612,26.205H199.521z
	 M206.736,460.307h-7.099v5.562h7.099V460.307z M228.261,455.563h13.514l-14.861-30.876h10.045l-13.304-20.403l-13.304,20.403
	h10.045l-14.86,30.876h13.514v10.305h9.211V455.563z M247.675,460.307h-7.1v5.562h7.1V460.307z M246.321,430.918h8.433l-10.628-16.3
	l-4.036,6.188l5.623,8.625h-11.253l13.328,27.692h11.144L246.321,430.918z"/>
<g>
	<path fill="#FFFFFF" d="M302.221,418.691v5.304h-11.107v29.72h-5.904v-29.72h-11.058v-5.304H302.221z"/>
	<path fill="#FFFFFF" d="M319.984,426.896v5.504c-5.354-0.3-8.756,2.853-9.206,7.405v13.909h-5.754v-26.618h5.754v5.304
		C312.579,428.798,315.781,426.896,319.984,426.896z"/>
	<path fill="#FFFFFF" d="M348.155,442.607h-20.114c0.901,4.103,4.053,6.654,8.256,6.654c2.902,0,5.554-1.101,7.505-3.102
		l3.053,3.252c-2.603,2.852-6.404,4.503-11.008,4.503c-8.205,0-13.609-5.454-13.609-13.459c0-8.056,5.554-13.509,13.459-13.56
		C345.053,426.896,348.855,433.001,348.155,442.607z M343.151,438.404c-0.2-4.303-3.052-6.904-7.405-6.904
		c-4.202,0-7.204,2.651-7.805,6.904H343.151z"/>
	<path fill="#FFFFFF" d="M377.578,442.607h-20.114c0.901,4.103,4.053,6.654,8.256,6.654c2.902,0,5.554-1.101,7.505-3.102
		l3.053,3.252c-2.603,2.852-6.404,4.503-11.008,4.503c-8.205,0-13.609-5.454-13.609-13.459c0-8.056,5.554-13.509,13.459-13.56
		C374.476,426.896,378.278,433.001,377.578,442.607z M372.574,438.404c-0.2-4.303-3.052-6.904-7.405-6.904
		c-4.202,0-7.204,2.651-7.805,6.904H372.574z"/>
	<path fill="#FFFFFF" d="M391.089,431.45c-2.251,0-3.902,0.75-3.902,2.651c0,4.903,14.159,2.252,14.109,11.908
		c0,5.453-4.854,7.905-10.207,7.905c-3.902,0-8.056-1.301-10.707-3.702l2.052-4.104c2.301,2.052,6.004,3.303,8.905,3.303
		c2.452,0,4.354-0.851,4.354-2.853c0-5.453-14.01-2.401-13.96-12.008c0-5.403,4.703-7.705,9.807-7.705
		c3.353,0,6.905,1.001,9.307,2.702l-2.102,4.253C396.393,432.351,393.44,431.45,391.089,431.45z"/>
</g>
</svg>
